<?xml version="1.0" standalone="no"?>
<!DOCTYPE svg PUBLIC "-//W3C//DTD SVG 20010904//EN"
 "http://www.w3.org/TR/2001/REC-SVG-20010904/DTD/svg10.dtd">
<svg version="1.0" xmlns="http://www.w3.org/2000/svg"
 width="5700.000000pt" height="1050.000000pt" viewBox="0 0 5700.000000 1050.000000"
 preserveAspectRatio="xMidYMid meet">

<g transform="translate(0.000000,1050.000000) scale(0.100000,-0.100000)"
fill="#000000" stroke="none">

<path fill="#2FC774" opacity="1.000000" stroke="none" 
	d="
M1208.169189,393.530731 
	C1208.221802,471.807343 1208.490723,550.084778 1208.202026,628.360107 
	C1208.108887,653.608948 1207.043701,678.881775 1205.536621,704.090698 
	C1203.616333,736.212097 1201.822754,768.398376 1198.130859,800.343567 
	C1192.137573,852.202637 1171.407837,898.273376 1138.521606,938.655640 
	C1099.678833,986.352234 1050.059204,1017.654358 990.604187,1033.222290 
	C968.349182,1039.049683 945.509521,1041.027588 922.593628,1042.367554 
	C896.093567,1043.917480 869.622681,1045.965576 843.123596,1047.533325 
	C832.500000,1048.161865 821.828918,1047.952759 811.192627,1048.423462 
	C808.404053,1048.546875 805.664734,1049.785767 803.451416,1051.256104 
	C673.291565,1052.000000 542.583069,1052.000000 411.490540,1051.257690 
	C408.012909,1049.784546 404.941925,1048.554443 401.821838,1048.413818 
	C391.183716,1047.934692 380.510925,1048.143921 369.882874,1047.538330 
	C342.046082,1045.952148 314.235077,1043.909424 286.396576,1042.358154 
	C257.700470,1040.759277 229.659088,1036.074097 202.481750,1026.457642 
	C160.615509,1011.643738 124.376289,988.238953 93.646202,956.183411 
	C66.068680,927.416443 45.733963,894.288513 32.037502,856.853027 
	C19.758055,823.290527 16.567785,788.304810 14.384833,753.109314 
	C12.863506,728.581116 11.497311,704.039673 10.418222,679.488525 
	C9.469420,657.901672 8.767545,636.297241 8.404881,614.693054 
	C7.929770,586.390198 7.722477,558.080017 7.720039,529.772949 
	C7.717658,502.132263 8.002733,474.489960 8.383967,446.851440 
	C8.617768,429.901398 9.268933,412.957123 9.734217,396.010284 
	C9.953406,388.026855 9.969123,380.031403 10.434662,372.062256 
	C12.099530,343.563019 14.100910,315.082550 15.626695,286.576324 
	C17.197792,257.223572 21.397604,228.421173 31.381458,200.616837 
	C60.270012,120.164192 114.648705,64.105568 193.534897,31.864624 
	C220.158005,20.983715 248.072769,15.074697 276.919281,13.588057 
	C305.759949,12.101716 334.569672,10.024447 363.400330,8.331143 
	C377.326904,7.513195 391.273987,7.046059 405.202271,6.253181 
	C407.358215,6.130455 409.462982,5.109717 411.591431,4.504266 
	C411.060974,3.669509 410.530487,2.834752 410.000000,1.999997 
	C416.722565,2.000000 423.445160,2.000000 430.705841,2.919690 
	C432.121765,3.995597 432.999542,4.151813 433.877350,4.308029 
	C433.918243,3.538686 433.959106,2.769343 434.000000,2.000000 
	C691.375122,2.000000 948.750244,2.000000 1207.062744,2.000000 
	C1208.112183,17.988800 1208.305664,33.977524 1208.320923,49.966415 
	C1208.364624,95.952316 1208.186279,141.939270 1208.484009,187.923279 
	C1208.533569,195.585022 1206.241943,200.554916 1200.266846,205.681503 
	C1151.307373,247.688202 1102.761353,290.176636 1054.039062,332.460236 
	C996.781250,382.151337 939.434265,431.739685 882.196045,481.453247 
	C817.673706,537.493347 753.235718,593.630493 688.747864,649.710327 
	C663.153442,671.967590 637.526489,694.187500 611.894714,716.401733 
	C611.163574,717.035278 610.208557,717.410645 609.432190,717.863098 
	C602.581177,714.807861 334.683746,482.886566 328.135223,474.195709 
	C377.009552,431.850586 425.920868,389.473419 475.367737,346.632233 
	C520.014832,385.277466 563.922363,423.282501 608.397766,461.779083 
	C621.498779,450.496674 634.068787,439.738190 646.566528,428.896545 
	C688.512512,392.508911 730.461670,356.124817 772.355103,319.676727 
	C817.511902,280.389435 862.607483,241.031601 908.500488,201.034271 
	C909.572632,199.893555 909.874084,199.423096 910.175476,198.952621 
	C909.396851,198.818069 908.618225,198.683517 907.839600,198.548981 
	C903.509399,198.475571 899.179138,198.338501 894.848938,198.338074 
	C776.526245,198.326447 658.203247,198.189484 539.880981,198.420929 
	C507.940247,198.483398 475.992767,199.393173 444.064728,200.421570 
	C414.503693,201.373749 384.948944,202.732208 355.420563,204.421524 
	C330.899780,205.824341 306.260590,206.777283 281.961243,210.058075 
	C243.743484,215.218079 214.729538,247.988586 212.359711,286.512543 
	C210.666306,314.040771 209.077789,341.576996 207.699081,369.122498 
	C206.785049,387.384338 206.062973,405.663910 205.713287,423.944305 
	C204.885574,467.213104 204.146881,510.485413 203.742432,553.759766 
	C203.533890,576.074158 203.741730,598.407654 204.430679,620.711792 
	C205.415848,652.604980 206.666183,684.498962 208.474609,716.354492 
	C209.658981,737.217346 210.804550,758.211548 214.140137,778.794800 
	C220.009323,815.012695 253.827072,842.687622 288.588684,844.397400 
	C310.150024,845.457886 331.677216,847.207764 353.237244,848.303040 
	C383.109863,849.820557 412.992798,851.179688 442.882965,852.293884 
	C467.480438,853.210754 492.091217,853.979553 516.702515,854.272949 
	C570.983398,854.920227 625.268127,855.518311 679.551636,855.550293 
	C707.491089,855.566711 735.439514,854.564880 763.368774,853.589172 
	C793.261047,852.544861 823.148621,851.229126 853.013855,849.586670 
	C879.535217,848.128113 906.117615,846.927490 932.502747,844.050476 
	C969.029480,840.067810 999.581848,810.861816 1004.027100,772.757935 
	C1006.602112,750.684631 1006.927551,728.351440 1008.348694,706.140564 
	C1011.281555,660.304565 1012.552246,614.420410 1012.259277,568.496460 
	C1012.228821,563.718994 1013.863647,560.556641 1017.478821,557.429443 
	C1073.823730,508.688690 1130.047119,459.807587 1186.284058,410.942230 
	C1192.559814,405.489105 1198.747070,399.934082 1206.007935,393.889008 
	C1207.416748,393.411346 1207.792969,393.471039 1208.169189,393.530731 
z"/>
<path d="M27140 5665 l0 -3725 690 0 690 0 0 3725 0 3725 -690 0 -690 0 0
-3725z"/>
<path d="M52240 5665 l0 -3725 695 0 695 0 2 1287 3 1287 865 -1287 865 -1286
794 -1 793 0 -18 28 c-10 15 -432 621 -938 1347 -506 726 -920 1327 -920 1335
0 8 409 594 907 1302 499 708 907 1290 907 1293 0 3 -356 4 -792 3 l-792 -3
-835 -1226 -836 -1226 -3 2299 -2 2298 -695 0 -695 0 0 -3725z"/>
<path d="M15050 5510 l0 -3570 715 0 715 0 0 1475 0 1475 1458 -2 1457 -3 3
-1472 2 -1473 715 0 715 0 0 3570 0 3570 -715 0 -715 0 0 -1465 0 -1465 -1460
0 -1460 0 0 1465 0 1465 -715 0 -715 0 0 -3570z"/>
<path d="M35390 5510 l0 -3571 1618 4 c1744 4 1679 2 1992 57 584 104 1093
354 1460 720 365 363 609 852 705 1410 46 265 47 295 52 1255 6 1132 -2 1285
-78 1640 -122 560 -406 1052 -804 1393 -441 378 -1020 597 -1724 652 -86 6
-696 10 -1678 10 l-1543 0 0 -3570z m2881 2399 c663 -52 1119 -320 1359 -798
76 -151 140 -396 159 -611 14 -152 15 -1841 1 -1981 -25 -249 -81 -454 -174
-636 -229 -446 -655 -703 -1275 -768 -105 -11 -295 -15 -833 -15 l-698 0 0
2403 c0 1322 3 2407 7 2410 11 11 1308 8 1454 -4z"/>
<path d="M23834 7360 c-997 -69 -1715 -564 -2039 -1405 -102 -264 -154 -520
-176 -864 -16 -260 -6 -1113 15 -1279 71 -555 269 -986 610 -1328 452 -454
1111 -682 1911 -661 316 8 526 44 808 137 743 247 1260 793 1421 1503 l6 27
-609 0 -609 0 -21 -53 c-53 -130 -183 -292 -309 -386 -197 -146 -421 -218
-707 -228 -551 -20 -943 223 -1100 681 -44 129 -65 257 -72 439 l-6 167 1737
0 1738 0 -5 598 c-5 641 -8 692 -63 942 -68 309 -208 624 -379 855 -347 470
-875 757 -1540 839 -154 19 -456 27 -611 16z m505 -1000 c353 -72 601 -283
728 -620 53 -140 74 -262 80 -463 l6 -187 -1094 2 -1094 3 -3 65 c-4 86 14
272 38 387 102 489 406 775 885 832 121 15 334 6 454 -19z"/>
<path d="M32178 7360 c-566 -47 -1069 -304 -1335 -680 -15 -22 -31 -40 -35
-40 -5 0 -8 137 -8 305 l0 305 -660 0 -660 0 0 -3540 0 -3540 690 0 690 0 2
1165 3 1166 71 -88 c256 -319 699 -533 1207 -583 158 -16 479 -8 627 15 467
72 865 264 1168 563 396 392 619 922 663 1573 17 260 6 1254 -15 1412 -89 647
-365 1171 -801 1519 -230 183 -529 324 -835 392 -233 51 -548 74 -772 56z
m187 -1153 c455 -116 736 -437 831 -952 17 -90 19 -157 19 -665 0 -638 -2
-660 -77 -887 -149 -454 -498 -714 -1006 -752 -362 -27 -687 85 -921 317 -168
167 -268 361 -327 632 -17 77 -19 138 -19 680 0 581 1 597 23 697 62 281 174
489 358 663 158 150 342 243 569 286 48 9 129 12 260 10 163 -3 204 -7 290
-29z"/>
<path d="M44055 7364 c-578 -32 -1080 -208 -1455 -511 -98 -79 -270 -258 -343
-355 -236 -316 -385 -698 -453 -1159 -22 -150 -33 -1217 -14 -1429 74 -838
476 -1471 1151 -1811 249 -125 534 -209 859 -254 162 -22 534 -31 701 -16 757
69 1401 425 1774 981 72 108 174 317 214 440 27 84 60 211 61 233 0 4 -273 7
-607 7 l-608 -1 -30 -67 c-46 -104 -116 -200 -209 -290 -209 -201 -455 -296
-796 -309 -380 -14 -660 85 -876 308 -136 141 -222 314 -269 539 -14 67 -34
301 -35 403 l0 37 1735 0 1735 0 0 563 c0 596 -6 701 -51 927 -173 858 -738
1465 -1563 1675 -142 36 -269 59 -411 74 -104 12 -408 20 -510 15z m450 -1003
c318 -69 544 -240 682 -516 86 -171 138 -435 131 -660 l-3 -90 -1089 -3 c-600
-1 -1093 1 -1097 5 -12 14 9 317 31 426 99 507 398 794 892 857 110 13 348 4
453 -19z"/>
<path d="M49015 7354 c-659 -52 -1155 -252 -1482 -598 -255 -269 -386 -601
-400 -1016 -24 -709 251 -1139 877 -1373 140 -52 244 -78 1144 -282 451 -103
848 -198 883 -212 200 -80 299 -208 310 -403 10 -155 -32 -271 -138 -385 -184
-197 -465 -290 -874 -289 -199 1 -319 15 -463 55 -242 68 -436 207 -525 377
-48 93 -67 161 -74 275 l-6 97 -610 0 -610 0 6 -172 c11 -319 85 -563 243
-800 347 -522 1062 -808 2018 -808 498 0 909 88 1291 275 399 196 691 471 859
810 127 257 177 520 156 820 -25 349 -132 602 -339 805 -105 103 -207 172
-366 250 -174 84 -271 114 -865 260 -1475 364 -1405 344 -1503 430 -142 126
-166 415 -48 599 122 189 350 285 711 298 364 13 595 -53 762 -217 121 -119
172 -244 184 -452 l7 -108 604 0 603 0 0 98 c0 477 -195 910 -538 1195 -284
237 -659 387 -1132 452 -111 16 -569 28 -685 19z"/>
</g>
</svg>
