<?xml version="1.0" encoding="utf-8"?>
<svg viewBox="0 0 5700 1050" xmlns="http://www.w3.org/2000/svg">
  <path opacity="1.000000" stroke="none" d=" M1208.169189,393.530731 C1208.221802,471.807343 1208.490723,550.084778 1208.202026,628.360107 C1208.108887,653.608948 1207.043701,678.881775 1205.536621,704.090698 C1203.616333,736.212097 1201.822754,768.398376 1198.130859,800.343567 C1192.137573,852.202637 1171.407837,898.273376 1138.521606,938.655640 C1099.678833,986.352234 1050.059204,1017.654358 990.604187,1033.222290 C968.349182,1039.049683 945.509521,1041.027588 922.593628,1042.367554 C896.093567,1043.917480 869.622681,1045.965576 843.123596,1047.533325 C832.500000,1048.161865 821.828918,1047.952759 811.192627,1048.423462 C808.404053,1048.546875 805.664734,1049.785767 803.451416,1051.256104 C673.291565,1052.000000 542.583069,1052.000000 411.490540,1051.257690 C408.012909,1049.784546 404.941925,1048.554443 401.821838,1048.413818 C391.183716,1047.934692 380.510925,1048.143921 369.882874,1047.538330 C342.046082,1045.952148 314.235077,1043.909424 286.396576,1042.358154 C257.700470,1040.759277 229.659088,1036.074097 202.481750,1026.457642 C160.615509,1011.643738 124.376289,988.238953 93.646202,956.183411 C66.068680,927.416443 45.733963,894.288513 32.037502,856.853027 C19.758055,823.290527 16.567785,788.304810 14.384833,753.109314 C12.863506,728.581116 11.497311,704.039673 10.418222,679.488525 C9.469420,657.901672 8.767545,636.297241 8.404881,614.693054 C7.929770,586.390198 7.722477,558.080017 7.720039,529.772949 C7.717658,502.132263 8.002733,474.489960 8.383967,446.851440 C8.617768,429.901398 9.268933,412.957123 9.734217,396.010284 C9.953406,388.026855 9.969123,380.031403 10.434662,372.062256 C12.099530,343.563019 14.100910,315.082550 15.626695,286.576324 C17.197792,257.223572 21.397604,228.421173 31.381458,200.616837 C60.270012,120.164192 114.648705,64.105568 193.534897,31.864624 C220.158005,20.983715 248.072769,15.074697 276.919281,13.588057 C305.759949,12.101716 334.569672,10.024447 363.400330,8.331143 C377.326904,7.513195 391.273987,7.046059 405.202271,6.253181 C407.358215,6.130455 409.462982,5.109717 411.591431,4.504266 C411.060974,3.669509 410.530487,2.834752 410.000000,1.999997 C416.722565,2.000000 423.445160,2.000000 430.705841,2.919690 C432.121765,3.995597 432.999542,4.151813 433.877350,4.308029 C433.918243,3.538686 433.959106,2.769343 434.000000,2.000000 C691.375122,2.000000 948.750244,2.000000 1207.062744,2.000000 C1208.112183,17.988800 1208.305664,33.977524 1208.320923,49.966415 C1208.364624,95.952316 1208.186279,141.939270 1208.484009,187.923279 C1208.533569,195.585022 1206.241943,200.554916 1200.266846,205.681503 C1151.307373,247.688202 1102.761353,290.176636 1054.039062,332.460236 C996.781250,382.151337 939.434265,431.739685 882.196045,481.453247 C817.673706,537.493347 753.235718,593.630493 688.747864,649.710327 C663.153442,671.967590 637.526489,694.187500 611.894714,716.401733 C611.163574,717.035278 610.208557,717.410645 609.432190,717.863098 C602.581177,714.807861 334.683746,482.886566 328.135223,474.195709 C377.009552,431.850586 425.920868,389.473419 475.367737,346.632233 C520.014832,385.277466 563.922363,423.282501 608.397766,461.779083 C621.498779,450.496674 634.068787,439.738190 646.566528,428.896545 C688.512512,392.508911 730.461670,356.124817 772.355103,319.676727 C817.511902,280.389435 862.607483,241.031601 908.500488,201.034271 C909.572632,199.893555 909.874084,199.423096 910.175476,198.952621 C909.396851,198.818069 908.618225,198.683517 907.839600,198.548981 C903.509399,198.475571 899.179138,198.338501 894.848938,198.338074 C776.526245,198.326447 658.203247,198.189484 539.880981,198.420929 C507.940247,198.483398 475.992767,199.393173 444.064728,200.421570 C414.503693,201.373749 384.948944,202.732208 355.420563,204.421524 C330.899780,205.824341 306.260590,206.777283 281.961243,210.058075 C243.743484,215.218079 214.729538,247.988586 212.359711,286.512543 C210.666306,314.040771 209.077789,341.576996 207.699081,369.122498 C206.785049,387.384338 206.062973,405.663910 205.713287,423.944305 C204.885574,467.213104 204.146881,510.485413 203.742432,553.759766 C203.533890,576.074158 203.741730,598.407654 204.430679,620.711792 C205.415848,652.604980 206.666183,684.498962 208.474609,716.354492 C209.658981,737.217346 210.804550,758.211548 214.140137,778.794800 C220.009323,815.012695 253.827072,842.687622 288.588684,844.397400 C310.150024,845.457886 331.677216,847.207764 353.237244,848.303040 C383.109863,849.820557 412.992798,851.179688 442.882965,852.293884 C467.480438,853.210754 492.091217,853.979553 516.702515,854.272949 C570.983398,854.920227 625.268127,855.518311 679.551636,855.550293 C707.491089,855.566711 735.439514,854.564880 763.368774,853.589172 C793.261047,852.544861 823.148621,851.229126 853.013855,849.586670 C879.535217,848.128113 906.117615,846.927490 932.502747,844.050476 C969.029480,840.067810 999.581848,810.861816 1004.027100,772.757935 C1006.602112,750.684631 1006.927551,728.351440 1008.348694,706.140564 C1011.281555,660.304565 1012.552246,614.420410 1012.259277,568.496460 C1012.228821,563.718994 1013.863647,560.556641 1017.478821,557.429443 C1073.823730,508.688690 1130.047119,459.807587 1186.284058,410.942230 C1192.559814,405.489105 1198.747070,399.934082 1206.007935,393.889008 C1207.416748,393.411346 1207.792969,393.471039 1208.169189,393.530731 z" style="fill: rgb(12, 143, 170);"/>
  <path fill="#000101" opacity="1.000000" stroke="none" d=" M433.500000,2.000000 C433.959106,2.769343 433.918243,3.538686 433.877350,4.308029 C432.999542,4.151813 432.121765,3.995597 431.621979,2.919690 C432.000000,2.000000 433.000000,2.000000 433.500000,2.000000 z"/>
  <path fill="#1B1B20" opacity="1.000000" stroke="none" d=" M3986.032715,826.087708 C3953.126465,842.625427 3918.822266,851.877625 3883.120850,855.802185 C3868.268799,857.434875 3853.231934,857.958618 3838.276855,857.988892 C3744.965088,858.177673 3651.652832,858.088989 3558.340576,858.078552 C3542.138672,858.076782 3542.100830,858.046692 3542.100342,842.091675 C3542.092041,614.810059 3542.092285,387.528442 3542.099121,160.246841 C3542.099609,143.960983 3542.131592,143.916687 3558.001953,143.923752 C3655.312744,143.967041 3752.630127,143.365845 3849.931152,144.372864 C3898.059326,144.870972 3944.798584,154.935669 3987.803711,177.281433 C4058.484375,214.007782 4100.867188,272.702820 4117.846191,350.130341 C4123.718262,376.909271 4126.050781,404.049286 4125.957031,431.465179 C4125.783691,482.452972 4126.282715,533.445435 4125.785645,584.429016 C4125.402832,623.724609 4118.511719,662.004395 4103.727051,698.565674 C4080.676514,755.567688 4042.014648,798.362244 3986.032715,826.087708 M3917.251221,287.672241 C3898.547852,276.182007 3878.163330,269.569244 3856.679199,265.311615 C3836.159180,261.245026 3815.559570,261.997192 3794.931152,261.934113 C3762.603027,261.835266 3730.274414,261.854248 3697.946289,261.952057 C3687.063232,261.984985 3686.144775,263.095673 3685.919678,274.135071 C3685.899170,275.134583 3685.908447,276.134705 3685.908447,277.134552 C3685.907959,427.110962 3685.907227,577.087402 3685.917480,727.063782 C3685.917725,729.727783 3685.986084,732.395264 3686.133545,735.054993 C3686.376465,739.443787 3688.820068,741.675903 3693.151123,741.896362 C3695.146973,741.997986 3697.146484,742.081543 3699.144287,742.079834 C3738.804199,742.045654 3778.466797,742.245728 3818.123291,741.862183 C3842.940918,741.622253 3867.223145,737.383911 3890.561768,728.778687 C3918.550781,718.458862 3941.580566,701.479431 3957.835938,676.180298 C3973.921631,651.145264 3981.745850,623.369385 3981.958008,593.802185 C3982.385742,534.147949 3982.192627,474.488190 3981.988525,414.831635 C3981.955566,405.218201 3981.231934,395.495056 3979.653076,386.018341 C3972.831299,345.076355 3954.527344,311.143433 3917.251221,287.672241 z"/>
  <path fill="#1B1B20" opacity="1.000000" stroke="none" d=" M1942.095459,244.000000 C1942.095703,215.335709 1942.089600,187.671402 1942.104370,160.007111 C1942.105957,157.009399 1942.159424,154.008179 1942.312134,151.014893 C1942.534180,146.661423 1944.872681,144.305344 1949.253540,144.112808 C1951.915771,143.995804 1954.582275,143.926392 1957.246948,143.925583 C1995.243774,143.914154 2033.240479,143.897644 2071.237305,143.928757 C2085.622314,143.940536 2086.078857,144.356842 2086.079834,158.322433 C2086.097412,386.636200 2086.096680,614.949951 2086.082764,843.263733 C2086.081787,857.621094 2085.657715,858.054321 2071.650879,858.068054 C2033.320801,858.105652 1994.990845,858.083679 1956.660767,858.075439 C1954.328613,858.074951 1951.995728,858.008606 1949.664307,857.939026 C1944.797607,857.793823 1942.373657,855.195557 1942.242920,850.402649 C1942.152100,847.071777 1942.101074,843.738770 1942.100708,840.406677 C1942.092896,753.747437 1942.099731,667.088196 1942.089111,580.428955 C1942.087036,564.130188 1942.058228,564.092896 1926.194214,564.090515 C1840.201538,564.077332 1754.208984,564.083923 1668.216309,564.085449 C1666.216553,564.085510 1664.213745,564.038574 1662.217529,564.127808 C1653.657227,564.510498 1652.350952,565.738159 1651.967285,574.020325 C1651.813110,577.346680 1651.906982,580.685181 1651.906860,584.018127 C1651.904541,670.010742 1651.911133,756.003418 1651.898926,841.996033 C1651.896606,858.043823 1651.862671,858.070435 1635.749878,858.077454 C1598.086426,858.093872 1560.423096,858.102661 1522.759644,858.071289 C1508.377441,858.059265 1507.921265,857.643005 1507.920288,843.674377 C1507.902588,615.360596 1507.903320,387.046814 1507.917358,158.733032 C1507.918213,144.377808 1508.341431,143.945587 1522.352051,143.931839 C1560.682129,143.894287 1599.012207,143.916306 1637.342285,143.924545 C1639.674438,143.925049 1642.007202,143.991486 1644.338623,144.061234 C1649.206665,144.206879 1651.627075,146.808563 1651.757446,151.600250 C1651.848022,154.931107 1651.899048,158.264160 1651.899292,161.596222 C1651.906982,248.255463 1651.900146,334.914703 1651.910889,421.573944 C1651.912842,437.869873 1651.941895,437.907043 1667.808838,437.909454 C1753.801514,437.922577 1839.794067,437.915863 1925.786743,437.915466 C1927.119995,437.915466 1928.453491,437.929230 1929.786377,437.903778 C1940.932983,437.691010 1941.950928,436.813232 1942.053589,425.977844 C1942.179932,412.646820 1942.093994,399.313751 1942.094360,385.981567 C1942.095947,338.987701 1942.095093,291.993866 1942.095459,244.000000 z"/>
  <path fill="#1B1B20" opacity="1.000000" stroke="none" d=" M3464.095459,570.000000 C3464.094238,596.992065 3464.616699,622.997009 3463.981201,648.973572 C3462.699463,701.344177 3448.038330,749.558167 3415.797852,791.355835 C3382.259033,834.836731 3337.364502,859.571960 3283.339111,867.889832 C3271.189941,869.760376 3258.858154,871.608826 3246.621582,871.540344 C3200.027100,871.279602 3155.846680,862.111084 3118.184814,832.453003 C3110.637695,826.509766 3104.252197,819.093994 3097.304688,812.384583 C3095.906250,811.034180 3094.388672,809.807373 3092.742188,808.362549 C3088.938965,811.019592 3090.174561,814.630127 3090.156250,817.661255 C3090.039307,836.987976 3090.094727,856.315857 3090.094727,875.643311 C3090.094238,922.629028 3090.094727,969.614685 3090.093750,1016.600403 C3090.093750,1019.266235 3090.141602,1021.933594 3090.070068,1024.597656 C3089.797363,1034.754883 3088.704346,1036.011353 3078.321045,1036.035156 C3039.333252,1036.124512 3000.344482,1036.128174 2961.356689,1036.025879 C2951.567383,1036.000244 2950.446777,1034.685181 2950.127197,1025.106201 C2950.049561,1022.776001 2950.095215,1020.441345 2950.095215,1018.108765 C2950.093750,794.176880 2950.093506,570.244934 2950.095947,346.313019 C2950.095947,343.314087 2949.997314,340.307343 2950.173828,337.317780 C2950.626953,329.646240 2951.976562,328.046265 2959.935547,328.017303 C2997.923340,327.878967 3035.912109,327.877228 3073.899902,328.010284 C3082.355713,328.039886 3083.835938,329.614929 3084.001953,337.983490 C3084.232910,349.642212 3084.048096,361.308685 3084.117188,372.971405 C3084.136475,376.222321 3084.422607,379.471649 3084.684082,384.666534 C3087.912842,382.049530 3090.104736,380.803589 3091.597656,378.983948 C3116.953125,348.080872 3149.996094,329.360046 3188.458984,321.234619 C3242.723145,309.770996 3296.027832,313.854370 3346.437744,338.478577 C3397.578857,363.460114 3430.736816,404.570190 3449.622803,457.736694 C3460.570801,488.557373 3465.153320,520.350159 3464.118164,553.004517 C3463.949463,558.331299 3464.094971,563.667908 3464.095459,570.000000 M3324.019775,646.532471 C3324.040527,612.225281 3324.148926,577.917786 3324.042236,543.610962 C3323.995361,528.468689 3320.898438,513.793335 3315.423096,499.726288 C3301.528809,464.031464 3276.709717,440.547119 3238.714844,432.151794 C3221.349854,428.314850 3203.917236,426.868835 3186.231934,430.231445 C3155.747070,436.027802 3130.807861,450.495483 3113.065918,476.368988 C3097.727295,498.737915 3090.448975,523.763367 3090.023193,550.668945 C3089.585693,578.307922 3089.726562,605.960938 3090.013672,633.603699 C3090.110107,642.883667 3090.580078,652.316345 3092.340088,661.396057 C3100.845703,705.275452 3124.635254,736.804932 3167.867676,751.581482 C3192.541260,760.014709 3217.639648,759.526672 3242.658447,752.832214 C3270.604004,745.354614 3292.612305,729.857605 3307.147217,704.428589 C3317.083252,687.045959 3321.968506,668.170715 3324.019775,646.532471 z"/>
  <path fill="#1B1B20" opacity="1.000000" stroke="none" d=" M5586.276367,480.264038 C5562.992676,513.231689 5540.281250,545.727295 5517.194824,577.954468 C5512.382324,584.672729 5512.241211,589.987061 5517.046875,596.790222 C5541.264648,631.074402 5565.118652,665.616211 5589.100098,700.067444 C5612.510742,733.699463 5635.921387,767.331177 5659.330566,800.963928 C5669.988770,816.276428 5680.662109,831.578491 5691.285645,846.914734 C5693.134277,849.582947 5694.773438,852.396179 5697.246582,856.307922 C5693.639160,857.052246 5691.219727,857.982971 5688.797852,857.987488 C5641.810059,858.075562 5594.821289,857.935547 5547.834473,858.178101 C5540.223633,858.217346 5536.587402,853.982178 5532.910156,848.484070 C5501.973633,802.228821 5470.931641,756.043335 5439.888672,709.859131 C5417.768555,676.950378 5395.604004,644.071350 5373.432617,611.197205 C5371.979980,609.043152 5370.297363,607.044250 5366.832520,605.096619 C5366.587402,608.136658 5366.132324,611.176453 5366.128906,614.216797 C5366.080566,655.539551 5366.095215,696.862427 5366.094238,738.185242 C5366.093750,772.509827 5366.094238,806.834473 5366.091797,841.159058 C5366.091797,843.491699 5366.158203,845.829102 5366.037598,848.156189 C5365.608887,856.436218 5364.333496,857.903748 5355.758301,857.995422 C5337.765137,858.187683 5319.768066,858.079468 5301.772949,858.082153 C5280.444824,858.085327 5259.116699,858.156921 5237.789062,858.036133 C5227.438965,857.977539 5226.384766,856.778625 5226.116211,846.537781 C5226.055176,844.206543 5226.094238,841.872559 5226.094238,839.539795 C5226.093750,603.932983 5226.092773,368.326172 5226.095215,132.719376 C5226.095215,113.927193 5226.104004,113.920364 5244.528320,113.917679 C5279.186035,113.912621 5313.843750,113.916252 5348.501465,113.916389 C5349.501465,113.916389 5350.500977,113.912987 5351.500977,113.919052 C5365.632812,114.004807 5366.079590,114.382584 5366.081055,128.582169 C5366.099609,270.879333 5366.093750,413.176514 5366.094727,555.473694 C5366.094727,559.748840 5366.094727,564.023987 5366.094727,568.299133 C5366.697266,568.573303 5367.300293,568.847473 5367.902832,569.121582 C5369.511719,567.400330 5371.376465,565.854004 5372.690430,563.931580 C5394.121094,532.572327 5415.473633,501.159668 5436.860840,469.770538 C5467.252441,425.164948 5497.719238,380.610474 5527.979492,335.915863 C5531.706543,330.412170 5535.992188,327.803345 5542.779785,327.831726 C5589.100098,328.025482 5635.422363,327.917450 5681.743652,327.972900 C5684.312988,327.975983 5686.881836,328.567596 5691.193848,329.100800 C5689.164062,332.876648 5687.962891,335.777527 5686.201660,338.285706 C5653.079590,385.450439 5619.890625,432.568695 5586.276367,480.264038 z"/>
  <path fill="#1B1B20" opacity="1.000000" stroke="none" d=" M4309.434082,848.678833 C4283.509277,837.152344 4260.776855,822.224915 4241.548340,802.317871 C4217.940430,777.877075 4201.728027,749.024475 4192.246094,716.499512 C4186.174805,695.673340 4181.979004,674.470764 4181.737793,652.597107 C4181.395996,621.639465 4179.654297,590.661926 4180.380859,559.736877 C4181.236328,523.335083 4186.097656,487.406982 4200.267090,453.288177 C4227.845215,386.881531 4276.566895,344.532501 4345.637207,325.678955 C4394.422852,312.362274 4443.817383,311.936707 4493.073730,322.568298 C4528.735840,330.265686 4561.066895,345.373688 4588.945312,369.615509 C4626.482422,402.256470 4648.167969,443.821594 4657.500000,491.871857 C4661.413086,512.019165 4662.800781,532.797485 4663.666992,553.359253 C4664.689941,577.643555 4663.915039,602.003967 4663.895996,626.331421 C4663.893555,629.327942 4663.841309,632.330811 4663.640625,635.319214 C4663.377441,639.230530 4661.158691,641.419861 4657.261719,641.642212 C4653.605957,641.850708 4649.937012,641.896118 4646.273926,641.896545 C4541.965820,641.909058 4437.657715,641.903809 4333.349609,641.909912 C4315.917969,641.910950 4315.068359,642.425049 4316.263672,659.881287 C4317.470703,677.517029 4320.086914,694.912903 4327.522461,711.322205 C4341.190918,741.487183 4364.347168,759.607666 4396.442383,766.584595 C4425.169922,772.829407 4453.339844,771.293823 4480.780762,760.111450 C4504.306152,750.524536 4522.170898,734.752808 4532.902832,711.636780 C4536.187500,704.561584 4540.449707,701.870178 4548.221680,701.953857 C4580.543457,702.302002 4612.871094,702.093201 4645.196289,702.113342 C4647.523926,702.114746 4649.869629,702.169434 4652.175781,702.452148 C4656.205566,702.946289 4658.168457,705.534851 4657.586426,709.389160 C4656.892578,713.981384 4655.875000,718.568237 4654.511719,723.008301 C4647.388184,746.215759 4636.165039,767.266235 4620.794434,786.077759 C4585.052246,829.821594 4538.110840,854.563049 4483.587402,865.632507 C4466.698242,869.061462 4449.268555,871.552917 4432.093750,871.507324 C4390.222656,871.396362 4349.072754,865.726990 4309.434082,848.678833 M4317.320312,522.189209 C4317.138672,523.172058 4316.907227,524.148682 4316.782227,525.138672 C4314.850586,540.469238 4316.192383,542.079102 4331.314453,542.083984 C4393.619141,542.104370 4455.923340,542.092712 4518.228027,542.092285 C4519.561035,542.092285 4520.894043,542.109253 4522.226562,542.077515 C4532.689941,541.828369 4534.229492,540.776245 4533.953125,530.702393 C4533.643555,519.421692 4533.518555,507.943329 4531.342285,496.940735 C4523.105957,455.295166 4497.333984,425.473480 4452.783691,416.686035 C4433.859375,412.953247 4415.011230,413.210846 4396.230469,417.072357 C4362.572754,423.992767 4339.600586,443.774292 4326.957031,475.629395 C4321.252441,490.002472 4318.309082,504.977570 4317.320312,522.189209 z"/>
  <path fill="#1B1B20" opacity="1.000000" stroke="none" d=" M2508.000000,641.905701 C2443.358887,641.906067 2379.717529,641.898254 2316.076416,641.913208 C2300.099365,641.916992 2299.813965,641.987122 2300.158203,658.161133 C2300.653809,681.478149 2305.130615,703.890015 2317.888916,723.872498 C2332.176758,746.250244 2352.365234,760.636597 2378.333496,766.473022 C2407.721924,773.078247 2436.677734,771.398865 2464.654053,760.010010 C2488.094971,750.467407 2505.506348,733.800964 2516.803223,711.296936 C2520.170410,704.588806 2524.021973,701.952759 2531.289795,702.003723 C2564.274902,702.235291 2597.262695,702.103088 2630.249512,702.108093 C2631.581787,702.108337 2632.924072,702.077759 2634.244385,702.221924 C2640.825684,702.940674 2642.668701,704.845276 2640.939941,711.429565 C2638.408691,721.071472 2635.524414,730.696838 2631.817627,739.939026 C2622.265137,763.755310 2607.859375,784.661316 2589.804443,802.641052 C2570.815186,821.551331 2548.880615,836.683472 2524.186768,847.555237 C2494.012207,860.840210 2462.651855,868.415222 2429.589844,870.449707 C2379.420166,873.536865 2331.094482,866.573914 2285.613037,845.195862 C2236.156006,821.949158 2201.161865,784.329651 2181.499512,733.089111 C2169.187988,701.004272 2164.131836,667.535400 2164.098145,633.254639 C2164.072510,606.931824 2163.548096,580.594849 2164.229248,554.289673 C2165.131104,519.453613 2170.521484,485.308838 2184.066895,452.900085 C2209.396240,392.297760 2252.840332,350.964264 2315.284668,329.830780 C2343.328125,320.339935 2372.116455,316.220337 2401.665283,315.794098 C2426.754639,315.432159 2451.614014,316.742432 2476.126953,322.251556 C2535.962646,335.699341 2582.981934,367.505707 2614.739014,420.439545 C2630.537598,446.773346 2639.506592,475.720276 2643.767090,506.018707 C2645.383057,517.509399 2645.869873,529.224182 2645.995361,540.846313 C2646.301025,569.165039 2646.100098,597.489258 2646.085693,625.811279 C2646.084229,628.808105 2646.021729,631.807495 2645.887939,634.801208 C2645.691650,639.194458 2643.274170,641.479736 2638.940186,641.694153 C2635.947510,641.842346 2632.947266,641.896301 2629.950439,641.897217 C2589.633545,641.909973 2549.316895,641.905884 2508.000000,641.905701 M2502.405273,462.727203 C2491.154297,442.218719 2474.221924,428.495667 2452.182373,421.046021 C2423.101807,411.216522 2393.917236,411.575836 2364.986328,421.413025 C2343.278320,428.794220 2326.730225,442.795013 2316.394531,463.360107 C2312.087158,471.930511 2308.003418,480.956177 2305.971191,490.245850 C2303.004150,503.810883 2301.429199,517.756714 2300.322754,531.624939 C2299.617432,540.469055 2301.677246,541.732117 2310.823730,542.055176 C2313.483154,542.149109 2316.147705,542.092468 2318.810059,542.092590 C2358.745850,542.094177 2398.681396,542.095337 2438.617188,542.093262 C2461.247314,542.092041 2483.877930,542.169861 2506.507324,542.041382 C2516.707275,541.983459 2517.833252,540.680725 2518.076172,530.441589 C2518.631104,507.057648 2514.314209,484.767090 2502.405273,462.727203 z"/>
  <path fill="#1B1B20" opacity="1.000000" stroke="none" d=" M4717.679688,512.220032 C4712.051270,465.977509 4719.199219,423.604248 4747.730957,386.556061 C4764.796387,364.397125 4787.133789,348.975586 4812.575684,337.842468 C4838.782715,326.374451 4866.262695,319.896667 4894.729004,317.964020 C4911.645508,316.815491 4928.666992,315.692657 4945.579102,316.294861 C4984.924316,317.695892 5023.169434,324.937622 5058.016113,344.253784 C5107.980469,371.950073 5136.538086,413.866974 5140.160645,471.670319 C5140.451660,476.313721 5141.433594,480.920776 5141.606445,485.562897 C5141.826660,491.499481 5140.086914,493.230042 5134.227051,493.956696 C5133.897461,493.997559 5133.562012,494.003876 5133.229004,494.003967 C5097.907715,494.012024 5062.586426,494.111664 5027.266113,493.948792 C5019.771484,493.914246 5018.285645,492.166809 5018.205566,484.021149 C5018.115723,474.939301 5017.207031,466.125061 5013.828613,457.586487 C5006.688477,439.539398 4993.210449,428.037231 4975.290527,422.370117 C4943.490234,412.313690 4911.397949,412.823669 4880.161621,424.558563 C4852.799805,434.837952 4840.522461,461.403137 4848.569336,489.635956 C4851.296875,499.205566 4857.482910,506.025726 4866.122559,510.396454 C4871.733887,513.234985 4877.696289,515.703918 4883.779785,517.232544 C4930.310547,528.925171 4976.973145,540.097473 5023.459473,551.961426 C5045.047852,557.470947 5066.898438,562.694275 5087.625488,570.661194 C5118.150391,582.394287 5142.527832,602.472961 5155.322266,633.514099 C5160.335449,645.676270 5163.958984,658.930542 5165.311035,671.988220 C5170.044922,717.693604 5159.377930,759.163086 5128.746094,794.685974 C5108.750488,817.874023 5084.314941,834.849670 5056.676758,847.171143 C5024.729004,861.413879 4991.078125,868.310547 4956.035645,870.433960 C4919.795410,872.629944 4884.174316,869.674927 4848.994141,861.832886 C4811.349609,853.441406 4776.770996,838.238098 4749.160645,810.220947 C4719.660645,780.285645 4707.481934,743.552551 4707.989746,702.128235 C4708.092285,693.785461 4709.624023,692.220825 4718.115723,692.186768 C4752.770020,692.047729 4787.426270,692.043335 4822.080078,692.195312 C4830.384277,692.231689 4831.669922,693.693237 4831.837402,702.467163 C4832.311523,727.259766 4845.069336,744.330811 4865.508301,756.608521 C4878.887695,764.645813 4893.666992,768.935669 4908.978516,770.600891 C4936.263672,773.568237 4963.556152,774.089600 4990.031738,764.964478 C5005.728027,759.554565 5019.745117,751.645874 5029.498535,737.477783 C5042.801758,718.154724 5040.535156,689.784302 5023.877441,675.290894 C5015.685059,668.162842 5005.653809,664.317444 4995.169922,661.866882 C4977.653320,657.772461 4960.082031,653.911682 4942.549316,649.885986 C4903.911133,641.014893 4865.263672,632.182373 4826.658203,623.171326 C4808.355957,618.899231 4791.098145,611.744263 4774.948730,602.231689 C4740.955078,582.208801 4722.916992,551.743286 4717.679688,512.220032 z"/>
  <path fill="#1B1B20" opacity="1.000000" stroke="none" d=" M2856.095459,492.000000 C2856.095215,608.954651 2856.097412,724.909241 2856.090820,840.863892 C2856.089844,858.057312 2856.071045,858.074280 2839.061035,858.079956 C2803.741455,858.091736 2768.422119,858.085022 2733.102539,858.080688 C2730.437256,858.080383 2727.762695,858.171753 2725.108154,857.990967 C2717.961182,857.504150 2716.639404,856.159546 2716.183594,848.853333 C2715.997314,845.865051 2716.096436,842.857788 2716.096436,839.859192 C2716.093506,603.951477 2716.093018,368.043793 2716.095703,132.136093 C2716.095947,113.930550 2716.107666,113.921547 2734.106934,113.918205 C2769.093262,113.911720 2804.079590,113.914871 2839.065918,113.919548 C2841.731201,113.919907 2844.406006,113.829010 2847.060303,114.013695 C2854.215820,114.511612 2855.557861,115.860931 2856.000732,123.146690 C2856.202637,126.467499 2856.091797,129.808426 2856.092041,133.140228 C2856.095215,252.426819 2856.094971,371.713409 2856.095459,492.000000 z"/>
  <path fill="#0B321D" opacity="1.000000" stroke="none" d=" M907.925171,199.075165 C908.618225,198.683517 909.396851,198.818069 910.175476,198.952621 C909.874084,199.423096 909.572632,199.893555 908.849365,200.473358 C908.288574,200.255600 908.149597,199.928482 907.925171,199.075165 z"/>
  <path fill="#0C321D" opacity="1.000000" stroke="none" d=" M1207.984131,393.184692 C1207.792969,393.471039 1207.416748,393.411346 1206.469971,393.381165 C1206.532715,393.219971 1207.165771,393.029297 1207.984131,393.184692 z"/>
</svg>